<?xml version="1.0" encoding="utf-8"?>
<!-- Generator: Adobe Illustrator 25.2.1, SVG Export Plug-In . SVG Version: 6.00 Build 0)  -->
<svg version="1.1" id="Ebene_1" xmlns="http://www.w3.org/2000/svg" xmlns:xlink="http://www.w3.org/1999/xlink" x="0px" y="0px"
	 viewBox="0 0 512 512" style="enable-background:new 0 0 512 512;" xml:space="preserve">
<style type="text/css">
	.st0{fill:#EEEEEE;}
</style>
<path class="st0" d="M215.1,272h-136c-12.9,0-24.6,7.8-29.6,19.8c-4.1,12-1.3,25.8,7.8,34.9l30.1,30.1L9.4,434.7
	c-12.5,12.5-12.5,32.8,0,45.2L32,502.6c12.5,12.5,32.8,12.5,45.3,0l78.1-78.1l30.1,30.1c6.1,6.1,14.3,9.4,22.6,9.4
	c4.1,0,8.3-0.8,12.2-2.4c12-5,19.8-16.6,19.8-29.6V296C239.1,282.7,229.3,272,215.1,272z M296,240h136c12.9,0,24.6-7.8,29.6-19.8
	c5-12,2.2-25.7-6.9-34.9l-30.1-30.1l78.1-78.1c12.5-12.5,12.5-32.8,0-45.3L480,9.4c-12.5-12.5-32.8-12.5-45.3,0l-78.1,78.1
	l-30.1-30.1c-9.2-9.1-22.9-11.8-34.9-6.9c-12,5-19.8,16.6-19.8,29.6v135.1C272,229.3,282.7,240,296,240z"/>
</svg>
