<?xml version="1.0" encoding="utf-8"?>
<!-- Generator: Adobe Illustrator 25.2.1, SVG Export Plug-In . SVG Version: 6.00 Build 0)  -->
<svg version="1.1" id="Ebene_1" xmlns="http://www.w3.org/2000/svg" xmlns:xlink="http://www.w3.org/1999/xlink" x="0px" y="0px"
	 viewBox="0 0 512 512" style="enable-background:new 0 0 512 512;" xml:space="preserve">
<style type="text/css">
	.st0{fill:#EEEEEE;}
</style>
<path class="st0" d="M208,281.4c-12.5-12.5-32.8-12.5-45.3,0l-78.1,78.1l-30.1-30.1c-6.1-6.1-14.3-9.4-22.6-9.4
	c-4.1,0-8.3,0.8-12.2,2.4C7.8,327.4,0,339.1,0,352v135.1C0,501.3,10.8,512,24,512h136c12.9,0,24.6-7.8,29.6-19.7
	c5-12,2.2-25.7-6.9-34.9l-30.1-30.1l78.1-78.1c12.5-12.5,12.5-32.8,0-45.2L208,281.4z M487.1,0h-136c-12.9,0-24.6,7.8-29.6,19.8
	c-5,12-2.2,25.7,6.9,34.9l30.1,30.1l-78.1,78.1c-12.5,12.5-12.5,32.8,0,45.3l22.6,22.6c12.5,12.5,32.8,12.5,45.3,0l78.1-78.1
	l30.1,30.1c9.2,9.1,22.9,11.8,34.9,6.9c12.9-5,20.7-16.7,20.7-30.5v-136C512,10.7,501.3,0,487.1,0z"/>
</svg>
