<?xml version="1.0" encoding="utf-8"?>
<!-- Generator: Adobe Illustrator 28.1.0, SVG Export Plug-In . SVG Version: 6.00 Build 0)  -->
<svg version="1.1" id="Layer_1" xmlns="http://www.w3.org/2000/svg" xmlns:xlink="http://www.w3.org/1999/xlink" x="0px" y="0px"
	 viewBox="0 0 600 600" style="enable-background:new 0 0 600 600;" xml:space="preserve">
<g id="Utopia">
	<path d="M580.8,214.2c0.7,7.1,1,14.4,1,21.7c0,124.4-100.8,225.2-225.2,225.2S131.4,360.3,131.4,235.9
		c0-122.3,97.4-221.8,218.9-225.1C334,7.9,317.2,6.5,300,6.5C137.9,6.5,6.5,137.9,6.5,300S137.9,593.5,300,593.5
		S593.5,462.1,593.5,300C593.5,270.2,589.1,241.4,580.8,214.2z"/>
	<path d="M495,82.2c1,3.4,1.5,7,1.5,10.7c0,21.5-17.4,38.9-38.9,38.9c-21.5,0-38.9-17.4-38.9-38.9c0-17.4,11.5-32.2,27.3-37.1
		c-7.7-1.8-15.7-2.7-24-2.7c-58.3,0-105.6,47.3-105.6,105.6c0,24.6,8.4,47.2,22.5,65.1l-66.7,85.2l84.9-67
		c17.9,13.9,40.4,22.2,64.8,22.2c58.3,0,105.6-47.3,105.6-105.6C527.7,128.6,515.1,101.4,495,82.2z"/>
</g>
</svg>
